<svg xmlns="http://www.w3.org/2000/svg" version="1.1" xmlns:xlink="http://www.w3.org/1999/xlink" xmlns:svgjs="http://svgjs.dev/svgjs" width="100%" height="100%" viewBox="0 0 1000 600"><rect width="1000" height="600" x="0" y="0" fill="#f7f7f7"/><g><circle r="166.66666666666666" cx="222.22222391764322" cy="244.44444953070825" fill="#006838" transform="matrix(2.2499999313354513,0,0,2.2499999313354517,0,-250.00000228881902)"/><path d="M176.74249134789684 234.55907721415673L176.74249134789684 234.55907721415673Q171.15972701053732 234.55907721415673 167.53489898106693 232.4159307149808Q163.91007095159654 230.27278421580485 161.8463002486864 227.3094211552159Q159.8089881445315 224.31959949587173 158.88293718809746 220.98581605270914Q157.95688623166342 217.62557401079135 157.95688623166342 215.21784152406286L157.95688623166342 215.21784152406286Q157.74521744162132 208.5238160389825 161.5817142611338 200.6126950111602Q165.391752481891 192.701573983338 174.12309007112628 185.71650391194976Q182.88088625911678 178.75789243931683 196.930402198159 174.10117905839132Q210.9534595384459 169.44446567746587 231.24720478372907 169.44446567746587L231.24720478372907 169.44446567746587Q236.45954873851497 169.44446567746587 244.6352557538898 170.92614720776038Q252.81096276926462 172.40782873805483 260.64270800082113 176.32370135383303Q268.44799463362233 180.23957396961129 274.0307589709819 187.19818544224427Q279.61352330834137 194.18325551363245 279.4283131170546 204.97836380577786L279.4283131170546 204.97836380577786Q279.4283131170546 212.22801986471865 277.02058063032604 218.101828788386Q274.5863895448423 223.9491791132981 270.59114113279827 228.42068230293677Q266.59589272075425 232.89218549257544 261.0131283833947 235.77617275689857Q255.4303640460352 238.66016002122177 249.10675894352846 239.95663136022944L249.10675894352846 239.95663136022944Q255.24515385474842 240.51226193408985 261.75396914854196 242.84061862455258Q268.26278444233554 245.1689753150153 273.739714384674 249.42880971461187Q279.24310292576774 253.71510271296376 282.7885551589724 259.8534976241837Q286.30754879342174 265.9918925354037 286.49275898470853 274.37926834082054L286.49275898470853 274.37926834082054Q286.6779691759954 286.1004275894 281.01582904237006 296.04886072137714Q275.32723030998955 305.9972938533543 263.71190545643105 311.9504785732874Q252.0701220041174 317.9036632932205 234.68682262191265 319.2001346322282Q217.30352323970794 320.49660597123585 193.861204742549 314.91384163387636L193.861204742549 314.91384163387636Q195.71330665541709 311.5800581907138 197.1156123894458 308.5902365313696Q198.49145952471923 305.6268734707807 199.44396907990853 302.3724658238839Q200.37002003634257 299.1180581769871 201.00502640646874 295.3873957524957Q201.66649137535023 291.65673332800424 202.22212194921065 287.02647854583404L202.22212194921065 287.02647854583404Q202.59254233178427 283.85144669520304 203.25400730066573 278.0834721665567Q203.8890136707919 272.31549763791037 204.62985443593917 264.8806313876828Q205.39715379984165 257.4457651374552 206.1379945649889 248.68796894946468Q206.8788353301361 239.95663136022944 207.32863150897552 230.93424918468634Q207.80488628657017 221.91186700914318 207.88426208283593 212.9688606298659Q207.99009647785698 204.05231284934382 207.61967609528335 196.03535742650052L207.61967609528335 196.03535742650052Q207.24925571270973 189.89696251528056 207.06404552142294 185.9017141032366Q206.8788353301361 181.90646569119258 206.5084149475625 179.31352301317725L206.5084149475625 179.31352301317725Q196.26893722927753 180.7952045434717 188.35781620145525 184.60524276422893Q180.44669517363303 188.4152809849861 175.04914102756032 193.73345933479305Q169.65158688148762 199.02517908584474 166.97926840720652 205.4546185833725Q164.28049133417016 211.85759948214502 164.83612190803058 218.5516249672254L164.83612190803058 218.5516249672254Q165.391752481891 225.06044026101898 170.4982620416559 228.1296377166289Q175.60477160142074 231.1988351722389 182.32525568525637 230.27278421580485L182.32525568525637 230.27278421580485Q185.65903912841893 229.71715364194444 188.09323021390267 227.75921733405534Q190.5009627006312 225.80128102616618 191.98264423092567 223.20833834815085Q193.49078435997538 220.61539567013557 193.9405805388148 217.4403638195045Q194.41683531640945 214.2653319688735 193.861204742549 211.3019689082846L193.861204742549 211.3019689082846Q193.2791155699333 208.3121472489404 191.61222384835204 206.83046571864594Q189.94533212677078 205.3487841883515 187.90802002261586 204.87252941075684Q185.8442493197057 204.42273323191745 183.7011028205298 204.79315361449102Q181.55795632135386 205.16357399706465 180.0762747910594 206.08962495349869L180.0762747910594 206.08962495349869Q178.96501364333855 206.83046571864594 178.0389626869045 208.23277145267463Q177.11291173047044 209.6350771867033 176.74249134789684 211.3019689082846Q176.37207096532325 212.9688606298659 176.92770153918366 214.74158674646816Q177.48333211304407 216.51431286307053 179.52064421719896 217.62557401079135L179.52064421719896 217.62557401079135Q179.70585440848578 215.40305171534965 181.18753593878026 213.81553579003418Q182.69567606783 212.22801986471865 184.91819836327167 212.9688606298659L184.91819836327167 212.9688606298659Q186.21466970227934 213.5244912037263 186.77030027613978 214.926796937755Q187.3259308500002 216.3291026717837 186.95551046742656 217.91661859709922Q186.58509008485296 219.47767592365943 185.2886187458453 220.80060586142235Q183.99214740683763 222.09707720043002 181.55795632135386 222.2822873917168L181.55795632135386 222.2822873917168Q179.8910645997726 222.46749758300365 178.0389626869045 221.91186700914318Q176.1868607740364 221.35623643528277 174.59934484872093 220.03330649751985Q173.0118289234054 218.73683515851224 171.97994357195034 216.5936886593363Q170.97451681925054 214.4770007589156 171.15972701053732 211.3019689082846L171.15972701053732 211.3019689082846Q171.34493720182414 208.5238160389825 172.82661873211862 206.27483514478553Q174.30830026241307 204.05231284934382 176.55728115661003 202.57063131904937Q178.77980345205174 201.0624911899996 181.55795632135386 200.3216504248524Q184.36256778941126 199.58080965970515 187.14072065871338 199.766019850992L187.14072065871338 199.766019850992Q199.44396907990853 200.3216504248524 199.62917927119534 214.66221095020245L199.62917927119534 214.66221095020245Q199.62917927119534 218.18120458465177 198.22687353716663 221.7266568178564Q196.82456780313794 225.24565045230577 193.861204742549 228.1296377166289Q190.87138308320482 231.0136249809521 186.58509008485296 232.78635109755442Q182.32525568525637 234.55907721415673 176.74249134789684 234.55907721415673ZM222.67461878702537 178.1758032667011L222.67461878702537 178.1758032667011Q222.30419840445177 184.1289879866343 221.29877165175193 191.4844784405961Q220.26688630029685 198.8399688945579 219.3408353438628 207.01567590993278Q218.41478438742877 215.21784152406286 217.7533194185473 223.86980331703234Q217.09185444966585 232.5217651100018 217.48873343099473 241.06789250795026L217.48873343099473 241.06789250795026Q225.66444044636955 242.1791536556711 233.76077166547861 239.03058040379534Q241.85710288458768 235.8555485531644 248.36591817838124 229.90236383323122Q254.8747334721748 223.9491791132981 258.8699818842188 216.03805808547583Q262.86523029626284 208.1269370576536 262.86523029626284 199.766019850992L262.86523029626284 199.766019850992Q262.86523029626284 193.2572045571984 258.76414748919774 188.4152809849861Q254.689523280888 183.57335741277387 248.55112836966805 180.7952045434717Q242.41273345844812 177.99059307541432 235.4276633870599 177.24975231026713Q228.44259331567167 176.50891154511987 222.67461878702537 178.1758032667011ZM217.67394362228154 249.79923009718556L217.67394362228154 249.79923009718556Q217.85915381356835 255.56720462583183 217.67394362228154 262.6581090922411Q217.48873343099473 269.7225549598951 217.01247865340008 277.15742121012266Q216.53622387580543 284.5922874603503 215.98059330194502 292.13298810559894Q215.42496272808458 299.67368875084753 214.86933215422414 306.3677142359279L214.86933215422414 306.3677142359279Q222.30419840445177 308.9606569139432 231.4324149750159 308.40502634008277Q240.53417294682475 307.84939576622236 248.445293974647 304.0393575454652Q256.35641500246925 300.229319324708 261.56875895725517 292.97966326576716Q266.78110291204104 285.7035486080711 266.4106825294674 274.7496887233942L266.4106825294674 274.7496887233942Q266.04026214689384 267.47357406569813 263.42086087012325 262.6581090922411Q260.8279181921079 257.8161855200288 256.6474595887771 254.74698806441887Q252.44054238669102 251.67779060880883 247.33403282692618 250.19610907851438Q242.2275232671613 248.68796894946468 236.8299691210886 248.31754856689105Q231.4324149750159 247.94712818431742 226.4052812115168 248.42338296191207Q221.3781474480177 248.87317914075146 217.67394362228154 249.79923009718556Z " fill="#f7f7f7" transform="matrix(2.2499999313354513,0,0,2.2499999313354517,0,-250.00000228881902)"/><path d="MNaN 244.44446648491822 " fill="#006838" transform="matrix(2.2499999313354513,0,0,2.2499999313354517,0,-250.00000228881902)"/></g></svg>